<svg width="113" height="30" viewBox="0 0 113 30" fill="none" xmlns="http://www.w3.org/2000/svg">
<path d="M52.524 27.732H58.68V8.508H69.4297V3H45V8.508H52.524V27.732Z" fill="white"/>
<path d="M88.9057 8.508V3H69.4297V27.732H88.9057V22.224H75.5857V17.868H87.6817V12.36H75.5857V8.508H88.9057Z" fill="white"/>
<path d="M98.8951 27.732H105.051V8.508H112.539V3H88.9057V8.508H98.8951V27.732Z" fill="white"/>
<path d="M13.7175 29.977C13.493 29.977 13.2685 29.9506 13.0572 29.977C11.7102 30.1355 10.9047 29.462 10.2576 28.3395C7.12785 22.8855 3.94527 17.4448 0.7891 12.004C0.670249 11.7927 0.564601 11.5682 0.432544 11.3701C-0.161714 10.4589 -0.122094 9.54772 0.419341 8.63653C0.775896 8.02907 1.13245 7.4216 1.4758 6.81414C1.75312 6.33873 2.07005 6.15385 2.58508 6.55002C3.04728 6.91978 3.5491 7.23672 4.05092 7.55366C5.04135 8.14792 5.38469 9.21758 5.92613 10.1288C9.0955 15.5563 12.2253 21.0235 15.3946 26.4643C15.9889 27.4811 15.7908 28.5508 15.7644 29.6204C15.7644 29.7393 15.4211 29.9374 15.2362 29.9506C14.7344 30.0034 14.2193 29.9638 13.7175 29.977Z" fill="url(#paint0_linear)"/>
<path d="M20.4525 29.977C20.0299 29.977 19.6205 29.9506 19.1979 29.977C18.5905 30.0166 18.4188 29.7921 18.3264 29.1583C18.0623 27.3491 19.0527 26.0021 19.8714 24.5891C22.4069 20.1784 24.9557 15.7676 27.5044 11.3701C28.0854 10.3665 28.5872 9.28363 29.2871 8.37243C29.789 7.72535 30.5681 7.26315 31.2548 6.77454C32.2188 6.08784 32.2452 6.11425 32.8659 7.17071C33.2224 7.79138 33.579 8.42526 33.9356 9.05913C34.2921 9.70621 34.2657 10.3665 33.9091 11.0004C32.3641 13.6811 30.819 16.3619 29.2739 19.0427C27.3987 22.2649 25.5103 25.4871 23.6615 28.7093C23.1729 29.5544 22.4994 29.9902 21.5222 29.9638C21.1524 29.9638 20.809 29.977 20.4525 29.977Z" fill="url(#paint1_linear)"/>
<path d="M17.0718 5.32191C13.4402 5.32191 9.8086 5.2955 6.17703 5.33512C5.05454 5.34832 4.36784 4.62201 3.5755 4.06736C3.44344 3.97492 3.46985 3.47311 3.58871 3.23541C3.99808 2.44306 4.44708 1.65072 4.94889 0.911195C5.33186 0.343348 5.8865 0 6.61281 0C13.5854 0 20.5713 0 27.5439 0C28.323 0 28.8909 0.382965 29.2871 1.00363C29.7361 1.70354 30.1454 2.42985 30.568 3.15617C30.8585 3.64478 30.7793 3.97493 30.2775 4.35789C29.3399 5.09741 28.3495 5.34832 27.1741 5.33512C23.8067 5.28229 20.4392 5.32191 17.0718 5.32191Z" fill="url(#paint2_linear)"/>
<defs>
<linearGradient id="paint0_linear" x1="14.0703" y1="7.81735" x2="-3.02833" y2="17.7747" gradientUnits="userSpaceOnUse">
<stop stop-color="#FE7E00"/>
<stop offset="1" stop-color="#FF3B00"/>
</linearGradient>
<linearGradient id="paint1_linear" x1="32.4333" y1="7.79287" x2="15.2846" y2="17.8337" gradientUnits="userSpaceOnUse">
<stop stop-color="#FE7E00"/>
<stop offset="1" stop-color="#FF3B00"/>
</linearGradient>
<linearGradient id="paint2_linear" x1="27.7268" y1="0.334399" x2="25.8304" y2="8.77287" gradientUnits="userSpaceOnUse">
<stop stop-color="#FE7E00"/>
<stop offset="1" stop-color="#FF3B00"/>
</linearGradient>
</defs>
</svg>
