<svg width="160" height="16" viewBox="0 0 160 16" fill="none" xmlns="http://www.w3.org/2000/svg">
<path d="M6.52148 8.25391H7.64941V9.84668H6.52148V12H4.5459V9.84668H0.464844L0.375977 8.60254L4.52539 2.04688H6.52148V8.25391ZM2.34473 8.25391H4.5459V4.74023L4.41602 4.96582L2.34473 8.25391Z" fill="white"/>
<path d="M8.90039 11.0293C8.90039 10.7148 9.00521 10.4596 9.21484 10.2637C9.42904 10.0677 9.69564 9.96973 10.0146 9.96973C10.3382 9.96973 10.6048 10.0677 10.8145 10.2637C11.0286 10.4596 11.1357 10.7148 11.1357 11.0293C11.1357 11.3392 11.0309 11.5921 10.8213 11.7881C10.6117 11.9795 10.3428 12.0752 10.0146 12.0752C9.69108 12.0752 9.42448 11.9795 9.21484 11.7881C9.00521 11.5921 8.90039 11.3392 8.90039 11.0293Z" fill="white"/>
<path d="M18.1494 1.94434V3.57129H17.958C17.0648 3.58496 16.3447 3.81738 15.7979 4.26855C15.2555 4.71973 14.9297 5.34635 14.8203 6.14844C15.349 5.61068 16.0166 5.3418 16.8232 5.3418C17.6891 5.3418 18.3773 5.65169 18.8877 6.27148C19.3981 6.89128 19.6533 7.70703 19.6533 8.71875C19.6533 9.36589 19.512 9.9515 19.2295 10.4756C18.9515 10.9997 18.555 11.4076 18.04 11.6992C17.5296 11.9909 16.9508 12.1367 16.3037 12.1367C15.2555 12.1367 14.4079 11.7721 13.7607 11.043C13.1182 10.3138 12.7969 9.34082 12.7969 8.12402V7.41309C12.7969 6.33301 12.9997 5.38053 13.4053 4.55566C13.8154 3.72624 14.401 3.08594 15.1621 2.63477C15.9277 2.17904 16.8141 1.94889 17.8213 1.94434H18.1494ZM16.2217 6.92773C15.9027 6.92773 15.6133 7.01204 15.3535 7.18066C15.0938 7.34473 14.9023 7.56348 14.7793 7.83691V8.43848C14.7793 9.09928 14.9092 9.61654 15.1689 9.99023C15.4287 10.3594 15.7933 10.5439 16.2627 10.5439C16.6865 10.5439 17.0283 10.3776 17.2881 10.0449C17.5524 9.70768 17.6846 9.27246 17.6846 8.73926C17.6846 8.19694 17.5524 7.75944 17.2881 7.42676C17.0238 7.09408 16.6683 6.92773 16.2217 6.92773Z" fill="white"/>
<g opacity="0.5">
<path d="M109.909 7.95996C109.909 6.93001 110.046 5.94108 110.319 4.99316C110.597 4.04525 111.01 3.18392 111.557 2.40918C112.104 1.63444 112.671 1.08757 113.259 0.768555L113.519 1.60254C112.853 2.11296 112.306 2.89225 111.878 3.94043C111.454 4.98861 111.222 6.16211 111.181 7.46094L111.174 8.04199C111.174 9.80111 111.495 11.3278 112.138 12.6221C112.525 13.3968 112.985 14.0029 113.519 14.4404L113.259 15.2129C112.653 14.8757 112.074 14.3105 111.522 13.5176C110.447 11.9681 109.909 10.1156 109.909 7.95996Z" fill="white"/>
<path d="M116.451 6.4082H117.401C117.998 6.39909 118.468 6.24186 118.81 5.93652C119.151 5.63118 119.322 5.21875 119.322 4.69922C119.322 3.53255 118.741 2.94922 117.579 2.94922C117.032 2.94922 116.595 3.10645 116.267 3.4209C115.943 3.73079 115.781 4.14323 115.781 4.6582H114.517C114.517 3.86979 114.804 3.21582 115.378 2.69629C115.957 2.1722 116.69 1.91016 117.579 1.91016C118.518 1.91016 119.254 2.15853 119.787 2.65527C120.32 3.15202 120.587 3.84245 120.587 4.72656C120.587 5.15951 120.446 5.57878 120.163 5.98438C119.885 6.38997 119.505 6.69303 119.021 6.89355C119.568 7.06673 119.99 7.35384 120.286 7.75488C120.587 8.15592 120.737 8.64583 120.737 9.22461C120.737 10.1178 120.446 10.8265 119.862 11.3506C119.279 11.8747 118.52 12.1367 117.586 12.1367C116.652 12.1367 115.891 11.8838 115.303 11.3779C114.719 10.8721 114.428 10.2044 114.428 9.375H115.699C115.699 9.89909 115.87 10.3184 116.212 10.6328C116.554 10.9473 117.012 11.1045 117.586 11.1045C118.197 11.1045 118.664 10.945 118.987 10.626C119.311 10.307 119.473 9.84896 119.473 9.25195C119.473 8.67318 119.295 8.22884 118.939 7.91895C118.584 7.60905 118.071 7.44954 117.401 7.44043H116.451V6.4082Z" fill="white"/>
<path d="M128.995 12H122.474V11.0908L125.919 7.2627C126.429 6.68392 126.78 6.21452 126.972 5.85449C127.168 5.48991 127.266 5.11393 127.266 4.72656C127.266 4.20703 127.108 3.78092 126.794 3.44824C126.479 3.11556 126.06 2.94922 125.536 2.94922C124.907 2.94922 124.417 3.12923 124.066 3.48926C123.72 3.84473 123.547 4.34147 123.547 4.97949H122.282C122.282 4.06348 122.576 3.32292 123.164 2.75781C123.757 2.19271 124.547 1.91016 125.536 1.91016C126.461 1.91016 127.193 2.15397 127.73 2.6416C128.268 3.12467 128.537 3.76953 128.537 4.57617C128.537 5.55599 127.913 6.72266 126.664 8.07617L123.998 10.9678H128.995V12Z" fill="white"/>
<path d="M130.424 13.9824L129.706 13.4902C130.134 12.8932 130.358 12.278 130.376 11.6445V10.5029H131.613V11.4941C131.613 11.9544 131.499 12.4147 131.271 12.875C131.048 13.3353 130.766 13.7044 130.424 13.9824Z" fill="white"/>
<path d="M139.119 4.64453C139.119 5.14128 138.987 5.58333 138.723 5.9707C138.463 6.35807 138.11 6.66113 137.663 6.87988C138.183 7.10319 138.593 7.42904 138.894 7.85742C139.199 8.28581 139.352 8.77116 139.352 9.31348C139.352 10.1748 139.06 10.8607 138.477 11.3711C137.898 11.8815 137.134 12.1367 136.187 12.1367C135.229 12.1367 134.462 11.8815 133.883 11.3711C133.309 10.8561 133.021 10.1702 133.021 9.31348C133.021 8.77572 133.167 8.29036 133.459 7.85742C133.755 7.42448 134.163 7.09635 134.683 6.87305C134.241 6.6543 133.892 6.35124 133.637 5.96387C133.382 5.5765 133.254 5.13672 133.254 4.64453C133.254 3.80599 133.523 3.14062 134.061 2.64844C134.598 2.15625 135.307 1.91016 136.187 1.91016C137.062 1.91016 137.768 2.15625 138.306 2.64844C138.848 3.14062 139.119 3.80599 139.119 4.64453ZM138.087 9.28613C138.087 8.73014 137.909 8.27669 137.554 7.92578C137.203 7.57487 136.743 7.39941 136.173 7.39941C135.603 7.39941 135.145 7.57259 134.799 7.91895C134.457 8.2653 134.286 8.72103 134.286 9.28613C134.286 9.85124 134.452 10.2956 134.785 10.6191C135.122 10.9427 135.59 11.1045 136.187 11.1045C136.779 11.1045 137.244 10.9427 137.581 10.6191C137.918 10.291 138.087 9.84668 138.087 9.28613ZM136.187 2.94922C135.69 2.94922 135.286 3.10417 134.977 3.41406C134.671 3.7194 134.519 4.13639 134.519 4.66504C134.519 5.1709 134.669 5.58105 134.97 5.89551C135.275 6.2054 135.681 6.36035 136.187 6.36035C136.692 6.36035 137.096 6.2054 137.396 5.89551C137.702 5.58105 137.854 5.1709 137.854 4.66504C137.854 4.15918 137.697 3.74674 137.383 3.42773C137.068 3.10872 136.67 2.94922 136.187 2.94922Z" fill="white"/>
<path d="M146.283 8.65723H147.664V9.68945H146.283V12H145.012V9.68945H140.479V8.94434L144.937 2.04688H146.283V8.65723ZM141.915 8.65723H145.012V3.77637L144.861 4.0498L141.915 8.65723Z" fill="white"/>
<path d="M154.842 4.64453C154.842 5.14128 154.71 5.58333 154.445 5.9707C154.186 6.35807 153.832 6.66113 153.386 6.87988C153.905 7.10319 154.315 7.42904 154.616 7.85742C154.922 8.28581 155.074 8.77116 155.074 9.31348C155.074 10.1748 154.783 10.8607 154.199 11.3711C153.62 11.8815 152.857 12.1367 151.909 12.1367C150.952 12.1367 150.184 11.8815 149.605 11.3711C149.031 10.8561 148.744 10.1702 148.744 9.31348C148.744 8.77572 148.89 8.29036 149.182 7.85742C149.478 7.42448 149.886 7.09635 150.405 6.87305C149.963 6.6543 149.615 6.35124 149.359 5.96387C149.104 5.5765 148.977 5.13672 148.977 4.64453C148.977 3.80599 149.245 3.14062 149.783 2.64844C150.321 2.15625 151.03 1.91016 151.909 1.91016C152.784 1.91016 153.491 2.15625 154.028 2.64844C154.571 3.14062 154.842 3.80599 154.842 4.64453ZM153.81 9.28613C153.81 8.73014 153.632 8.27669 153.276 7.92578C152.925 7.57487 152.465 7.39941 151.896 7.39941C151.326 7.39941 150.868 7.57259 150.521 7.91895C150.18 8.2653 150.009 8.72103 150.009 9.28613C150.009 9.85124 150.175 10.2956 150.508 10.6191C150.845 10.9427 151.312 11.1045 151.909 11.1045C152.502 11.1045 152.966 10.9427 153.304 10.6191C153.641 10.291 153.81 9.84668 153.81 9.28613ZM151.909 2.94922C151.412 2.94922 151.009 3.10417 150.699 3.41406C150.394 3.7194 150.241 4.13639 150.241 4.66504C150.241 5.1709 150.392 5.58105 150.692 5.89551C150.998 6.2054 151.403 6.36035 151.909 6.36035C152.415 6.36035 152.818 6.2054 153.119 5.89551C153.424 5.58105 153.577 5.1709 153.577 4.66504C153.577 4.15918 153.42 3.74674 153.105 3.42773C152.791 3.10872 152.392 2.94922 151.909 2.94922Z" fill="white"/>
<path d="M159.716 8.02832C159.716 9.0446 159.581 10.0199 159.312 10.9541C159.048 11.8838 158.64 12.7428 158.089 13.5312C157.542 14.3197 156.968 14.8802 156.366 15.2129L156.1 14.4404C156.801 13.9027 157.364 13.0687 157.788 11.9385C158.216 10.8037 158.435 9.5459 158.444 8.16504V7.94629C158.444 6.98926 158.344 6.10059 158.144 5.28027C157.943 4.4554 157.663 3.71712 157.303 3.06543C156.947 2.41374 156.546 1.9056 156.1 1.54102L156.366 0.768555C156.968 1.10124 157.54 1.65723 158.082 2.43652C158.629 3.21582 159.037 4.07487 159.306 5.01367C159.579 5.95247 159.716 6.95736 159.716 8.02832Z" fill="white"/>
</g>
<path d="M33 0L34.5716 4.83688H39.6574L35.5429 7.82624L37.1145 12.6631L33 9.67376L28.8855 12.6631L30.4571 7.82624L26.3426 4.83688H31.4284L33 0Z" fill="url(#paint0_linear)"/>
<path d="M49 0L50.5716 4.83688H55.6574L51.5429 7.82624L53.1145 12.6631L49 9.67376L44.8855 12.6631L46.4571 7.82624L42.3426 4.83688H47.4284L49 0Z" fill="url(#paint1_linear)"/>
<path d="M65 0L66.5716 4.83688H71.6574L67.5429 7.82624L69.1145 12.6631L65 9.67376L60.8855 12.6631L62.4571 7.82624L58.3426 4.83688H63.4284L65 0Z" fill="url(#paint2_linear)"/>
<path d="M81 0L82.5716 4.83688H87.6574L83.5429 7.82624L85.1145 12.6631L81 9.67376L76.8855 12.6631L78.4571 7.82624L74.3426 4.83688H79.4284L81 0Z" fill="url(#paint3_linear)"/>
<path d="M97 1.61803L98.0961 4.99139L98.2083 5.33688H98.5716H102.119L99.249 7.42173L98.9551 7.63526L99.0674 7.98075L100.163 11.3541L97.2939 9.26925L97 9.05573L96.7061 9.26925L93.8366 11.3541L94.9326 7.98075L95.0449 7.63526L94.751 7.42173L91.8814 5.33688H95.4284H95.7917L95.9039 4.99139L97 1.61803Z" stroke="url(#paint4_linear)"/>
<g clip-path="url(#clip0)">
<path d="M97 1.61803L98.0961 4.99139L98.2083 5.33688H98.5716H102.119L99.249 7.42173L98.9551 7.63526L99.0674 7.98075L100.163 11.3541L97.2939 9.26925L97 9.05573L96.7061 9.26925L93.8366 11.3541L94.9326 7.98075L95.0449 7.63526L94.751 7.42173L91.8814 5.33688H95.4284H95.7917L95.9039 4.99139L97 1.61803Z" fill="url(#paint5_linear)" stroke="url(#paint6_linear)"/>
</g>
<defs>
<linearGradient id="paint0_linear" x1="38.4538" y1="0.877424" x2="26.9334" y2="10.9154" gradientUnits="userSpaceOnUse">
<stop stop-color="#FE7E00"/>
<stop offset="1" stop-color="#FF3B00"/>
</linearGradient>
<linearGradient id="paint1_linear" x1="54.4538" y1="0.877424" x2="42.9334" y2="10.9154" gradientUnits="userSpaceOnUse">
<stop stop-color="#FE7E00"/>
<stop offset="1" stop-color="#FF3B00"/>
</linearGradient>
<linearGradient id="paint2_linear" x1="70.4538" y1="0.877424" x2="58.9334" y2="10.9154" gradientUnits="userSpaceOnUse">
<stop stop-color="#FE7E00"/>
<stop offset="1" stop-color="#FF3B00"/>
</linearGradient>
<linearGradient id="paint3_linear" x1="86.4538" y1="0.877424" x2="74.9334" y2="10.9154" gradientUnits="userSpaceOnUse">
<stop stop-color="#FE7E00"/>
<stop offset="1" stop-color="#FF3B00"/>
</linearGradient>
<linearGradient id="paint4_linear" x1="102.454" y1="0.877424" x2="90.9334" y2="10.9154" gradientUnits="userSpaceOnUse">
<stop stop-color="#FE7E00"/>
<stop offset="1" stop-color="#FF3B00"/>
</linearGradient>
<linearGradient id="paint5_linear" x1="102.454" y1="0.877424" x2="90.9334" y2="10.9154" gradientUnits="userSpaceOnUse">
<stop stop-color="#FE7E00"/>
<stop offset="1" stop-color="#FF3B00"/>
</linearGradient>
<linearGradient id="paint6_linear" x1="102.454" y1="0.877424" x2="90.9334" y2="10.9154" gradientUnits="userSpaceOnUse">
<stop stop-color="#FE7E00"/>
<stop offset="1" stop-color="#FF3B00"/>
</linearGradient>
<clipPath id="clip0">
<rect width="7" height="14" fill="white" transform="translate(90)"/>
</clipPath>
</defs>
</svg>
