<svg width="873" height="65" viewBox="0 0 873 65" fill="none" xmlns="http://www.w3.org/2000/svg">
<path d="M36.504 63H52.604L26.568 30.432L50.948 1.63602H34.848L13.136 29.052V1.63602H0.0720215V63H13.136V44.14L17.92 38.436L36.504 63Z" fill="white"/>
<path d="M58.5603 38.528C58.5603 53.616 67.3003 64.104 86.0683 64.104C104.652 64.104 113.392 53.708 113.392 38.436V1.63602H100.144V38.068C100.144 46.624 95.4523 52.512 86.0683 52.512C76.5003 52.512 71.8083 46.624 71.8083 38.068V1.63602H58.5603V38.528Z" fill="white"/>
<path d="M125.494 63H158.798C170.482 63 176.646 55.64 176.646 46.44C176.646 38.712 171.402 32.364 164.87 31.352C170.666 30.156 175.45 25.004 175.45 17.276C175.45 9.08803 169.47 1.63602 157.786 1.63602H125.494V63ZM138.558 26.292V12.768H154.934C159.35 12.768 162.11 15.712 162.11 19.484C162.11 23.44 159.35 26.292 154.934 26.292H138.558ZM138.558 51.868V37.424H155.394C160.546 37.424 163.306 40.736 163.306 44.6C163.306 49.016 160.362 51.868 155.394 51.868H138.558Z" fill="white"/>
<path d="M186.498 63H229.922V51.684H199.562V37.424H229.278V26.2H199.562V12.86H229.922V1.63602H186.498V63Z" fill="white"/>
<path d="M274.819 63H289.815L276.015 39.632C282.639 38.068 289.447 32.272 289.447 21.416C289.447 10.008 281.627 1.63602 268.839 1.63602H240.135V63H253.199V41.012H262.767L274.819 63ZM276.107 21.324C276.107 26.476 272.151 29.788 266.907 29.788H253.199V12.86H266.907C272.151 12.86 276.107 16.172 276.107 21.324Z" fill="white"/>
<path d="M341.572 63H354.176V1.63602H341.112V41.38L312.684 1.63602H299.252V63H312.316V21.784L341.572 63Z" fill="white"/>
<path d="M366.275 63H409.699V51.684H379.339V37.424H409.055V26.2H379.339V12.86H409.699V1.63602H366.275V63Z" fill="white"/>
<path d="M434.08 63H447.236V13.136H465.084V1.63602H416.14V13.136H434.08V63Z" fill="white"/>
<path d="M473.459 63H516.883V51.684H486.523V37.424H516.239V26.2H486.523V12.86H516.883V1.63602H473.459V63Z" fill="white"/>
<path d="M522.863 54.352C528.659 60.148 537.123 64.104 548.899 64.104C565.459 64.104 573.463 55.64 573.463 44.416C573.463 30.8 560.583 27.764 550.463 25.464C543.379 23.808 538.227 22.52 538.227 18.38C538.227 14.7 541.355 12.124 547.243 12.124C553.223 12.124 559.847 14.24 564.815 18.84L572.083 9.27202C566.011 3.66002 557.915 0.716022 548.163 0.716022C533.719 0.716022 524.887 8.99603 524.887 19.208C524.887 32.916 537.767 35.676 547.795 37.976C554.879 39.632 560.215 41.196 560.215 45.796C560.215 49.292 556.719 52.696 549.543 52.696C541.079 52.696 534.363 48.924 530.039 44.416L522.863 54.352Z" fill="white"/>
<path d="M603.402 54.352C608.462 60.056 616.282 64.104 626.954 64.104C643.514 64.104 649.586 54.996 649.586 46.072C649.586 33.192 638.178 30.064 628.15 27.396C620.33 25.28 613.246 23.44 613.246 17.276C613.246 11.48 618.49 7.52402 625.85 7.52402C632.566 7.52402 639.006 9.82403 643.606 14.884L648.206 9.27202C643.054 3.84403 635.786 0.716022 626.402 0.716022C614.35 0.716022 605.334 7.61602 605.334 17.736C605.334 29.788 616.282 32.548 626.126 35.124C634.222 37.332 641.674 39.356 641.674 46.716C641.674 51.408 638.178 57.296 627.23 57.296C618.582 57.296 611.958 53.064 607.91 48.556L603.402 54.352Z" fill="white"/>
<path d="M675.629 63H683.265V8.44402H702.769V1.63602H656.217V8.44402H675.629V63Z" fill="white"/>
<path d="M750.787 63H759.251L734.503 1.63602H725.027L700.371 63H708.835L714.263 49.384H745.359L750.787 63ZM729.811 8.44402L743.059 42.576H716.471L729.811 8.44402Z" fill="white"/>
<path d="M792.656 64.104C803.788 64.104 811.148 58.952 816.3 51.96L809.768 48.372C806.272 53.616 799.924 57.296 792.656 57.296C779.5 57.296 769.288 46.9 769.288 32.364C769.288 17.736 779.5 7.43202 792.656 7.43202C799.924 7.43202 806.272 11.204 809.768 16.356L816.208 12.768C811.332 5.86802 803.788 0.624023 792.656 0.624023C775.268 0.624023 761.376 13.504 761.376 32.364C761.376 51.224 775.268 64.104 792.656 64.104Z" fill="white"/>
<path d="M863.107 63H872.583L844.799 30.8L870.375 1.63602H860.807L833.667 33.376V1.63602H826.031V63H833.667V42.392L839.831 35.4L863.107 63Z" fill="white"/>
</svg>
